<?xml version="1.0" encoding="UTF-8" standalone="no"?>
<!-- Created with Inkscape (http://www.inkscape.org/) -->

<svg
   width="120.0px"
   height="120.0px"
   viewBox="0 0 120.0 120.0"
   version="1.1"
   id="SVGRoot"
   sodipodi:docname="favicon.svg"
   inkscape:version="1.2 (dc2aeda, 2022-05-15)"
   xmlns:inkscape="http://www.inkscape.org/namespaces/inkscape"
   xmlns:sodipodi="http://sodipodi.sourceforge.net/DTD/sodipodi-0.dtd"
   xmlns="http://www.w3.org/2000/svg"
   xmlns:svg="http://www.w3.org/2000/svg">
  <sodipodi:namedview
     id="namedview2217"
     pagecolor="#ffffff"
     bordercolor="#000000"
     borderopacity="0.25"
     inkscape:showpageshadow="2"
     inkscape:pageopacity="0.0"
     inkscape:pagecheckerboard="0"
     inkscape:deskcolor="#d1d1d1"
     inkscape:document-units="px"
     showgrid="true"
     inkscape:zoom="3.5646988"
     inkscape:cx="15.429073"
     inkscape:cy="141.80721"
     inkscape:window-width="1390"
     inkscape:window-height="1205"
     inkscape:window-x="0"
     inkscape:window-y="25"
     inkscape:window-maximized="0"
     inkscape:current-layer="layer1">
    <inkscape:grid
       type="xygrid"
       id="grid2223" />
  </sodipodi:namedview>
  <defs
     id="defs2212">
    <clipPath
       clipPathUnits="userSpaceOnUse"
       id="clipPath2162">
      <path
         d="m -152.60831,107.44061 h 530.973 v -551.986 h -530.973 z"
         id="path2164"
         style="stroke-width:0.999998" />
    </clipPath>
  </defs>
  <g
     inkscape:label="Layer 1"
     inkscape:groupmode="layer"
     id="layer1">
    <g
       id="g38"
       transform="matrix(3.546288,0,0,-3.5404913,60.202731,3.498297)"
       clip-path="url(#clipPath2162)">
      <path
         d="m 0,0 c -8.995,0 -16.288,-7.293 -16.288,-16.29 0,-7.197 4.667,-13.302 11.14,-15.457 0.815,-0.149 1.112,0.354 1.112,0.786 0,0.386 -0.014,1.411 -0.022,2.77 -4.531,-0.984 -5.487,2.184 -5.487,2.184 -0.741,1.881 -1.809,2.382 -1.809,2.382 -1.479,1.011 0.112,0.991 0.112,0.991 1.635,-0.116 2.495,-1.679 2.495,-1.679 1.453,-2.489 3.813,-1.77 4.741,-1.354 0.148,1.053 0.568,1.771 1.034,2.178 -3.617,0.411 -7.42,1.809 -7.42,8.051 0,1.778 0.635,3.232 1.677,4.371 -0.168,0.412 -0.727,2.068 0.159,4.311 0,0 1.368,0.438 4.48,-1.67 1.299,0.361 2.693,0.542 4.078,0.548 1.383,-0.006 2.777,-0.187 4.078,-0.548 3.11,2.108 4.475,1.67 4.475,1.67 0.889,-2.243 0.33,-3.899 0.162,-4.311 1.044,-1.139 1.675,-2.593 1.675,-4.371 0,-6.258 -3.809,-7.635 -7.438,-8.038 0.585,-0.503 1.106,-1.497 1.106,-3.017 0,-2.177 -0.02,-3.934 -0.02,-4.468 0,-0.436 0.293,-0.943 1.12,-0.784 6.468,2.159 11.131,8.26 11.131,15.455 C 16.291,-7.293 8.997,0 0,0"
         style="fill:#1b1817;fill-opacity:1;fill-rule:evenodd;stroke:none"
         id="path40" />
    </g>
  </g>
</svg>
